<?xml version="1.0" encoding="utf-8"?>
<!-- Svg Vector Icons : http://www.onlinewebfonts.com/icon -->
<!DOCTYPE svg PUBLIC "-//W3C//DTD SVG 1.1//EN" "http://www.w3.org/Graphics/SVG/1.1/DTD/svg11.dtd">
<svg version="1.1" xmlns="http://www.w3.org/2000/svg" xmlns:xlink="http://www.w3.org/1999/xlink" x="0px" y="0px" viewBox="0 0 1000 1000" enable-background="new 0 0 1000 1000" xml:space="preserve">
<metadata> Svg Vector Icons : http://www.onlinewebfonts.com/icon </metadata>
<g><g transform="translate(0.000000,511.000000) scale(0.100000,-0.100000)"><path d="M100,2448.4C100,1393.2,486.8,272,1135.6-548.2c1801.9-2284.1,5143.6-2531.4,7234.3-533.7c940.1,898.5,1459.1,2054,1515.4,3376L9900,2654H5001.2H100V2448.4z M9488.7,2098.3C9324.7,382.1,8306.2-1025.5,6749.2-1689c-582.7-249.7-1052.7-342.7-1740.6-342.7c-675.7-2.4-1140.8,85.7-1706.4,318.3C1718.2-1067.2,670.4,360.1,503.9,2098.3l-17.1,164h4509.5h4509.5L9488.7,2098.3z"/></g></g>
</svg>